<svg version="1.1" xmlns="http://www.w3.org/2000/svg" xmlns:xlink="http://www.w3.org/1999/xlink" width="609" height="483" viewBox="0 0 609 483"><defs/><g transform="matrix(1,0,0,1,0,0)"><g><g><g><path fill="none" stroke="#d3d3d3" paint-order="fill stroke markers" d=" M 0 0 L 1200 0" stroke-miterlimit="10" stroke-opacity="0.8" stroke-dasharray="5"/></g><g><path fill="none" stroke="#d3d3d3" paint-order="fill stroke markers" d=" M 0 0 L 0 800" stroke-miterlimit="10" stroke-opacity="0.8" stroke-dasharray="5"/></g></g><g id="_4EABED88-D3E8-441B-84C8-D2F51B71E999" transform="matrix(1,0,0,1,160,205)"><g><path fill="none" stroke="none"/></g><g transform="matrix(0.9345794392523364,0,0,0.8771929824561403,0,0)"><g transform="matrix(1,0,0,1,0,0)"><path fill="none" stroke="#000000" id="_4EABED88-D3E8-441B-84C8-D2F51B71E999?shapeType=BORDER&amp;renderType=STROKE" paint-order="fill stroke markers" d=" M 0 0 M 1.5 30 C 1.5 14.3 14.3 1.5 30 1.5 L 80 1.5 C 95.7 1.5 108.5 14.3 108.5 30 C 108.5 45.7 95.7 58.5 80 58.5 L 30 58.5 C 14.3 58.5 1.5 45.7 1.5 30 Z" stroke-miterlimit="10" stroke-width="1.5" stroke-dasharray=""/></g></g><g transform="matrix(1,0,0,1,5.505973815917969,19.5)"><text fill="#000000" stroke="none" font-family="Open Sans" font-size="10pt" font-style="normal" font-weight="normal" text-decoration="normal" x="44.49402618408203" y="8.8" text-anchor="middle" dominant-baseline="alphabetic">MerchantType</text></g></g><g transform="matrix(1,0,0,1,160,205)"/><g id="_9F2A352F-126C-425E-AA70-F95EFE9A0A37" transform="matrix(1,0,0,1,458,205)"><g><path fill="none" stroke="none"/></g><g transform="matrix(0.9345794392523364,0,0,0.8771929824561403,0,0)"><g transform="matrix(1,0,0,1,0,0)"><path fill="none" stroke="#000000" id="_9F2A352F-126C-425E-AA70-F95EFE9A0A37?shapeType=BORDER&amp;renderType=STROKE" paint-order="fill stroke markers" d=" M 0 0 M 1.5 30 C 1.5 14.3 14.3 1.5 30 1.5 L 80 1.5 C 95.7 1.5 108.5 14.3 108.5 30 C 108.5 45.7 95.7 58.5 80 58.5 L 30 58.5 C 14.3 58.5 1.5 45.7 1.5 30 Z" stroke-miterlimit="10" stroke-width="1.5" stroke-dasharray=""/></g></g><g transform="matrix(1,0,0,1,36.63746643066406,19.5)"><text fill="#000000" stroke="none" font-family="Open Sans" font-size="10pt" font-style="normal" font-weight="normal" text-decoration="normal" x="13.362533569335938" y="8.8" text-anchor="middle" dominant-baseline="alphabetic">MTS</text></g></g><g transform="matrix(1,0,0,1,458,205)"/><g id="_1C853820-B319-4A18-87A6-127307CDE0E7" transform="matrix(1,0,0,1,330,383)"><g><path fill="none" stroke="none"/></g><g transform="matrix(1,0,0,1,0,0)"><path fill="none" stroke="rgb(0,136,206)" id="_1C853820-B319-4A18-87A6-127307CDE0E7?shapeType=BORDER&amp;renderType=STROKE" paint-order="fill stroke markers" d=" M 0 0 L 100 0 L 100 50 L 0 50 L 0 0 Z Z" stroke-miterlimit="10" stroke-width="1.5" stroke-dasharray=""/></g><g transform="matrix(1,0,0,1,14.136619567871094,19.5)"><text fill="#000000" stroke="none" font-family="Open Sans" font-size="10pt" font-style="normal" font-weight="normal" text-decoration="normal" x="35.863380432128906" y="8.8" text-anchor="middle" dominant-baseline="alphabetic">Treatement</text></g></g><g id="_9DA2B84D-E7B9-420C-AE0B-3AA9F326379D#_B2BFDFAA-72D3-44AA-B646-176EDBDFDEED"><g><path fill="none" stroke="#000000" paint-order="fill stroke markers" d=" M 237.77777777777777 255 L 368.8505878062925 372.9655290256633" stroke-miterlimit="10" stroke-dasharray=""/></g><g transform="matrix(1,0,0,1,237.77777777777777,255)"/><g transform="matrix(-0.6689647316224481,0.7432941462471677,-0.7432941462471677,-0.6689647316224481,383.34482365811226,379.28352926876414)"><path fill="#000000" stroke="#000000" paint-order="fill stroke markers" d=" M 10 15 L 0 15 L 5 0 Z" stroke-miterlimit="10" stroke-dasharray=""/></g><g transform="matrix(1,0,0,1,244.46742509400232,311.56705853752834)"/></g><g id="_9DA2B84D-E7B9-420C-AE0B-3AA9F326379D#_BA8C72DD-B4AC-44A8-BE46-D3F4F15E7EEF"><g><path fill="none" stroke="#000000" paint-order="fill stroke markers" d=" M 487.08496732026146 255 L 389.6249368279107 371.495192697888" stroke-miterlimit="10" stroke-dasharray=""/></g><g transform="matrix(1,0,0,1,487.08496732026146,255)"/><g transform="matrix(-0.7669871534741316,-0.6416624551940443,0.6416624551940443,-0.7669871534741316,383.83493576737067,386.20831227597023)"><path fill="#000000" stroke="#000000" paint-order="fill stroke markers" d=" M 10 15 L 0 15 L 5 0 Z" stroke-miterlimit="10" stroke-dasharray=""/></g><g transform="matrix(1,0,0,1,387.66987153474133,312.58337544805954)"/></g><g transform="matrix(1,0,0,1,330,383)"><g transform="matrix(1,0,0,1,100,50)"><path fill="#0088CE" stroke="#FFFFFF" paint-order="fill stroke markers" d=" M 5 0 A 5 5 0 1 0 4.999997500000209 0.0049999991666683785 Z" fill-opacity="0.8" stroke-miterlimit="10" stroke-width="2" stroke-dasharray=""/></g></g></g></g></svg>